<?xml version="1.0" standalone="no"?>
<!DOCTYPE svg PUBLIC "-//W3C//DTD SVG 20010904//EN"
 "http://www.w3.org/TR/2001/REC-SVG-20010904/DTD/svg10.dtd">
<svg version="1.0" xmlns="http://www.w3.org/2000/svg"
 width="2757.000000pt" height="1836.000000pt" viewBox="0 0 2757.000000 1836.000000"
 preserveAspectRatio="xMidYMid meet">

<g transform="translate(0.000000,1836.000000) scale(0.100000,-0.100000)"
fill="#000000" stroke="none">
<path d="M10 9180 l0 -9170 13780 0 13780 0 0 9170 0 9170 -13780 0 -13780 0
0 -9170z m12717 4642 c460 -74 777 -225 1054 -501 240 -241 391 -531 464 -895
37 -185 48 -318 49 -586 1 -276 -6 -313 -69 -368 -65 -57 -59 -57 -690 -57
l-580 0 -56 26 c-45 21 -63 37 -85 74 -26 45 -28 55 -35 234 -4 102 -13 218
-19 256 -42 264 -150 406 -360 474 -155 50 -226 56 -675 56 -452 0 -531 -6
-680 -52 -196 -61 -289 -159 -349 -365 -41 -143 -50 -243 -51 -538 0 -258 1
-279 22 -345 63 -195 243 -330 545 -410 130 -34 237 -51 439 -70 328 -31 655
-80 927 -141 355 -79 795 -227 974 -327 163 -91 326 -237 457 -410 61 -79 73
-102 65 -115 -6 -9 -165 -285 -354 -612 -189 -327 -450 -779 -580 -1005 -130
-225 -324 -561 -430 -745 -106 -184 -257 -445 -335 -580 -78 -135 -203 -351
-277 -480 -75 -129 -250 -433 -390 -675 -140 -242 -344 -596 -454 -786 -109
-191 -200 -346 -201 -345 -2 1 153 364 343 807 190 442 348 810 351 817 4 9
-76 12 -378 12 -390 0 -538 8 -709 36 -798 132 -1320 626 -1474 1396 -37 181
-46 301 -46 592 0 232 2 265 19 302 25 54 83 101 143 114 31 6 253 10 597 10
603 0 618 -1 685 -61 50 -43 66 -101 66 -235 0 -61 5 -158 11 -215 40 -396
169 -542 534 -605 122 -21 759 -31 975 -15 468 34 638 176 701 586 7 44 13
177 13 295 0 178 -3 226 -18 280 -24 86 -75 183 -132 247 -88 102 -286 212
-480 268 -112 32 -219 50 -454 75 -511 53 -1020 160 -1460 306 -333 111 -475
186 -635 336 -311 290 -497 695 -562 1218 -25 210 -26 956 0 1140 69 488 226
825 518 1106 141 135 264 220 440 303 226 106 437 159 779 195 19 2 413 3 875
2 805 -2 846 -3 972 -24z m3998 -34 c-9 -18 -166 -384 -350 -813 l-334 -780
362 -6 c389 -7 515 -20 724 -73 514 -130 896 -427 1112 -863 94 -190 162 -425
193 -673 9 -73 13 -241 13 -550 0 -494 3 -473 -68 -548 -58 -61 -70 -62 -687
-62 -606 0 -625 2 -684 56 -16 15 -38 48 -50 73 -20 44 -21 67 -27 441 -5 359
-8 402 -27 472 -46 169 -121 271 -244 331 -163 80 -282 91 -930 84 -521 -5
-568 -9 -687 -63 -42 -19 -52 -21 -47 -8 3 9 79 142 169 297 90 155 233 404
319 552 1420 2460 1249 2165 1254 2165 2 0 -3 -15 -11 -32z m-2000 -5435 c0
-1878 1 -1993 18 -2073 19 -89 60 -189 105 -253 55 -80 176 -147 332 -184 84
-20 984 -31 1169 -14 328 30 480 142 553 409 19 70 22 113 27 472 7 436 8 440
74 508 59 61 70 62 688 62 485 0 565 -2 606 -16 56 -19 96 -53 126 -109 21
-39 22 -53 25 -415 5 -545 -20 -778 -114 -1059 -230 -692 -785 -1092 -1609
-1161 -188 -16 -1804 -8 -1920 9 -509 75 -840 230 -1126 528 -254 265 -401
608 -454 1059 -12 104 -15 274 -15 866 l0 738 129 222 c70 123 382 662 691
1198 310 536 593 1026 628 1088 35 61 65 112 66 112 0 0 1 -894 1 -1987z"/>
</g>
</svg>
